<?xml version="1.0" encoding="utf-8"?>
<!-- Generator: Adobe Illustrator 22.1.0, SVG Export Plug-In . SVG Version: 6.00 Build 0)  -->
<svg version="1.1" id="Camada_1" xmlns="http://www.w3.org/2000/svg" xmlns:xlink="http://www.w3.org/1999/xlink" x="0px" y="0px"
	 viewBox="0 0 787.9 865.8" style="enable-background:new 0 0 787.9 865.8;" xml:space="preserve">
<style type="text/css">
	.st0{filter:url(#Adobe_OpacityMaskFilter);}
	.st1{fill:url(#SVGID_2_);stroke:#009BDB;stroke-width:0.5;stroke-miterlimit:10;}
	.st2{mask:url(#SVGID_1_);}
	.st3{fill:#4C4B4D;}
	.st4{fill:#D5D6D9;}
	.st5{fill:none;stroke:#009BDB;stroke-width:0.5;stroke-miterlimit:10;}
</style>
<defs>
	<filter id="Adobe_OpacityMaskFilter" filterUnits="userSpaceOnUse" x="-10.1" y="-11.3" width="808.2" height="888.1">
		<feColorMatrix  type="matrix" values="1 0 0 0 0  0 1 0 0 0  0 0 1 0 0  0 0 0 1 0"/>
	</filter>
</defs>
<mask maskUnits="userSpaceOnUse" x="-10.1" y="-11.3" width="808.2" height="888.1" id="SVGID_1_">
	<g class="st0">
		<linearGradient id="SVGID_2_" gradientUnits="userSpaceOnUse" x1="0" y1="432.9" x2="787.9" y2="432.9">
			<stop  offset="7.614213e-02" style="stop-color:#000000"/>
			<stop  offset="0.4518" style="stop-color:#FFFFFF"/>
		</linearGradient>
		<rect class="st1" width="787.9" height="865.8"/>
	</g>
</mask>
<g class="st2">
	<g>
		<polygon class="st3" points="368.5,417.6 368.4,417.6 368.4,417.5 		"/>
		<polygon class="st3" points="343,402.8 342.8,402.9 342.8,402.7 		"/>
		<polygon class="st3" points="317.5,388.1 317.2,388.2 317.2,388 		"/>
		<polygon class="st3" points="419.6,594.5 394.1,609.2 394.1,609.2 394.1,579.7 394.1,579.7 		"/>
		<polygon class="st3" points="419.6,565 394.1,579.7 394.1,579.7 394.1,550.2 394.1,550.2 		"/>
		<polygon class="st4" points="394.1,579.7 394.1,609.2 368.5,594.5 		"/>
		<polygon class="st4" points="368.5,565 394.1,579.7 368.5,594.5 368.4,594.4 368.4,565 		"/>
		<polygon class="st4" points="368.4,594.4 368.4,594.5 343,609.2 342.8,609.1 342.8,579.8 343,579.7 		"/>
		<polygon class="st4" points="368.4,564.9 368.4,565 343,579.7 342.8,579.6 342.8,550.3 343,550.2 		"/>
		<polygon class="st4" points="368.4,565 368.4,594.4 343,579.7 		"/>
		<polygon class="st4" points="368.4,535.6 368.4,564.9 343,550.2 		"/>
		<polygon class="st4" points="394.1,550.2 394.1,579.7 368.5,565 		"/>
		<polygon class="st4" points="368.4,594.5 368.4,623.9 343,609.2 		"/>
		<polygon class="st4" points="368.5,535.5 394.1,550.2 368.5,565 368.4,564.9 368.4,535.6 		"/>
		<polygon class="st4" points="342.8,550.3 342.8,579.6 317.5,565 		"/>
		<polygon class="st4" points="368.4,535.5 368.4,535.6 343,550.2 342.8,550.1 342.8,520.9 343,520.8 		"/>
		<polygon class="st4" points="342.8,579.6 342.8,579.8 317.5,594.5 317.2,594.3 317.2,565.1 317.5,565 		"/>
		<polygon class="st4" points="342.8,579.8 342.8,609.1 317.5,594.5 		"/>
		<polygon class="st4" points="342.8,550.1 342.8,550.3 317.5,565 317.2,564.8 317.2,535.7 317.5,535.5 		"/>
		<polygon class="st4" points="317.2,565.1 317.2,594.3 291.9,579.7 		"/>
		<polygon class="st4" points="317.2,535.4 317.2,535.7 291.9,550.2 291.6,550.1 291.6,522.8 293.5,521.7 		"/>
		<polygon class="st4" points="317.2,564.8 317.2,565.1 291.9,579.7 291.6,579.5 291.6,550.4 291.9,550.2 		"/>
		<polygon class="st4" points="317.2,535.7 317.2,564.8 291.9,550.2 		"/>
		<polygon class="st4" points="291.6,550.1 291.6,550.4 266.4,565 266,564.7 266,537.6 268,536.4 		"/>
		<polygon class="st4" points="291.6,550.4 291.6,579.5 266.4,565 		"/>
		<polygon class="st4" points="291.6,522.8 291.6,550.1 268,536.4 		"/>
		<polygon class="st4" points="291.6,520.6 291.6,522.8 268,536.4 266,535.3 266,506.3 266.4,506 		"/>
		<polygon class="st4" points="266,537.6 266,564.7 242.5,551.2 		"/>
		<polygon class="st4" points="266,535.3 266,537.6 242.5,551.2 240.4,549.9 240.4,521.1 240.9,520.8 		"/>
		<polygon class="st4" points="266,506.3 266,535.3 240.9,520.8 		"/>
		<polygon class="st4" points="266,505.8 266,506.3 240.9,520.8 240.4,520.5 240.4,491.6 240.9,491.3 		"/>
		<polygon class="st4" points="240.4,520.5 240.4,521.1 215.4,535.5 214.7,535.1 214.7,513 214.7,506.4 215.3,506 		"/>
		<polygon class="st4" points="240.4,521.1 240.4,549.9 215.4,535.5 		"/>
		<polygon class="st4" points="240.4,491.6 240.4,520.5 215.3,506 		"/>
		<polygon class="st4" points="240.4,491 240.4,491.6 215.3,506 214.7,505.7 214.7,476.9 215.3,476.5 		"/>
		<path class="st4" d="M214.7,505.7v0.7l-1.4,0.8c-0.9-1.8-2.3-3.4-4-4.6L214.7,505.7z"/>
		<path class="st4" d="M214.7,513v22.2L195.3,524l0,0c1.9,1.2,4.2,1.9,6.6,1.9C209,525.8,214.7,520,214.7,513L214.7,513z"/>
		<path class="st4" d="M214.7,476.9v28.8l-5.4-3.1c-0.7-0.5-1.4-0.9-2.2-1.3l-17.4-10L214.7,476.9z"/>
		<polygon class="st4" points="214.7,476.2 214.7,476.9 189.8,491.3 189.1,490.9 189.1,462.2 189.8,461.8 		"/>
		<path class="st4" d="M213.3,507.2c0.9,1.7,1.4,3.7,1.4,5.8c0,7.1-5.7,12.8-12.8,12.8c-2.4,0-4.7-0.7-6.6-1.9c-1.7-1-3-2.3-4.1-4
			L213.3,507.2z"/>
		<path class="st4" d="M213.3,507.2L191.2,520c-1.3-2-2.1-4.4-2.1-7c0-7.1,5.7-12.8,12.8-12.8c1.9,0,3.7,0.4,5.3,1.1l2.2,1.3
			C211,503.8,212.4,505.3,213.3,507.2z"/>
		<path class="st4" d="M189.8,491.3l17.4,10c-1.6-0.7-3.4-1.1-5.3-1.1c-7.1,0-12.8,5.7-12.8,12.8l0,0v-21.3L189.8,491.3z"/>
		<polygon class="st3" points="445.3,550.3 445.3,579.6 445.1,579.7 419.7,565 419.7,564.9 445.1,550.2 		"/>
		<polygon class="st3" points="445.3,520.9 445.3,550.1 445.1,550.2 419.7,535.6 419.7,535.5 445.1,520.8 		"/>
		<polygon class="st3" points="419.7,565 419.7,594.4 419.6,594.5 394.1,579.7 419.6,565 		"/>
		<polygon class="st3" points="445.1,579.7 419.7,594.4 419.7,565 		"/>
		<polygon class="st3" points="419.7,535.6 419.7,564.9 419.6,565 394.1,550.2 419.6,535.5 		"/>
		<polygon class="st3" points="445.1,550.2 419.7,564.9 419.7,535.6 		"/>
		<path class="st3" d="M419.6,624l-19.4,11.2l0,0c4-2.2,6.7-6.4,6.7-11.2c0-4.2-2-7.9-5.1-10.2L419.6,624z"/>
		<path class="st3" d="M401.7,613.6c3.1,2.3,5.1,6.1,5.1,10.2c0,4.9-2.7,9.1-6.7,11.2c-1.8,1-3.9,1.5-6.1,1.5l0,0v-25.6l0,0
			c1.8,0,3.4,0.4,5,1h0.1L401.7,613.6L401.7,613.6z"/>
		<path class="st4" d="M368.5,594.5l25.5,14.7l-5.2,3c-0.8,0.4-1.6,0.8-2.2,1.3L368.5,624l-0.1-0.1L368.5,594.5L368.5,594.5z"/>
		<path class="st4" d="M394.1,611.1v25.6c-2.4,0-4.7-0.7-6.6-1.8c-3.7-2.2-6.2-6.3-6.2-10.9c0-4.3,2.1-8.1,5.3-10.4l2.2-1.3
			C390.4,611.5,392.2,611.1,394.1,611.1z"/>
		<path class="st4" d="M387.5,634.8L387.5,634.8l-19-10.8l18.1-10.4c-3.2,2.3-5.3,6.1-5.3,10.4C381.3,628.5,383.8,632.6,387.5,634.8
			z"/>
		<polygon class="st4" points="599,462.2 599,490.9 598.3,491.3 573.4,476.9 573.4,476.2 598.3,461.8 		"/>
		<path class="st4" d="M599,491.7V513l0,0c0-7.1-5.7-12.8-12.8-12.8c-1.9,0-3.7,0.4-5.3,1.1l17.4-10L599,491.7z"/>
		<path class="st4" d="M573.4,476.9l24.9,14.4l-17.4,10c-0.8,0.4-1.5,0.8-2.2,1.3l-5.4,3.1v-28.8H573.4z"/>
		<path class="st4" d="M599,513c0,2.6-0.8,5-2.1,7l-22.1-12.8c0.9-1.8,2.3-3.4,4-4.6l2.2-1.3c1.6-0.7,3.4-1.1,5.3-1.1
			C593.3,500.2,599,505.9,599,513z"/>
		<path class="st4" d="M574.8,507.2l22.1,12.8c-1.2,1.8-2.7,3.3-4.6,4.3c-1.8,1-3.9,1.6-6.1,1.6c-7.1,0-12.8-5.7-12.8-12.8
			C573.4,510.9,573.9,508.9,574.8,507.2z"/>
		<path class="st4" d="M592.3,524.2l-18.9,10.9V513l0,0c0,7.1,5.7,12.8,12.8,12.8C588.4,525.8,590.5,525.2,592.3,524.2L592.3,524.2z
			"/>
		<polygon class="st4" points="572.8,535.5 547.8,549.9 547.8,521.1 		"/>
		<polygon class="st4" points="573.4,513 573.4,535.1 572.8,535.5 547.8,521.1 547.8,520.5 572.8,506 573.4,506.4 		"/>
		<polygon class="st4" points="547.8,491.6 572.8,506 547.8,520.5 		"/>
		<polygon class="st4" points="573.4,476.9 573.4,505.7 572.8,506 547.8,491.6 547.8,491 572.8,476.5 		"/>
		<polygon class="st4" points="522.2,506.3 522.2,535.3 520.1,536.4 496.5,522.8 496.5,520.6 521.7,506 		"/>
		<polygon class="st4" points="522.2,476.8 522.2,505.8 521.7,506 496.5,491.5 496.5,491.1 521.7,476.5 		"/>
		<polygon class="st4" points="522.2,506.3 547.3,520.8 522.2,535.3 		"/>
		<polygon class="st4" points="545.7,551.2 522.2,564.7 522.2,537.6 		"/>
		<polygon class="st4" points="522.2,537.6 522.2,564.7 521.7,565 496.5,550.4 496.5,550.1 520.1,536.4 		"/>
		<polygon class="st4" points="522.2,476.8 547.3,491.3 522.2,505.8 		"/>
		<polygon class="st4" points="547.8,521.1 547.8,549.9 545.7,551.2 522.2,537.6 522.2,535.3 547.3,520.8 		"/>
		<polygon class="st4" points="547.8,491.6 547.8,520.5 547.3,520.8 522.2,506.3 522.2,505.8 547.3,491.3 		"/>
		<polygon class="st4" points="547.8,462.1 547.8,491 547.3,491.3 522.2,476.8 522.2,476.3 547.3,461.8 		"/>
		<polygon class="st4" points="496.2,579.7 470.9,594.3 470.9,565.1 		"/>
		<polygon class="st4" points="496.5,550.4 496.5,579.5 496.2,579.7 470.9,565.1 470.9,564.8 496.2,550.2 		"/>
		<polygon class="st4" points="496.5,522.8 520.1,536.4 496.5,550.1 		"/>
		<polygon class="st4" points="521.7,565 496.5,579.5 496.5,550.4 		"/>
		<polygon class="st4" points="496.5,522.8 496.5,550.1 496.2,550.2 470.9,535.7 470.9,535.4 494.6,521.7 		"/>
		<polygon class="st4" points="496.5,491.5 521.7,506 496.5,520.6 		"/>
		<polygon class="st4" points="496.2,550.2 470.9,564.8 470.9,535.7 		"/>
		<polygon class="st4" points="470.9,535.7 470.9,564.8 470.7,565 445.3,550.3 445.3,550.1 470.7,535.5 		"/>
		<polygon class="st3" points="445.3,579.8 445.3,609.1 445.1,609.2 419.7,594.5 419.7,594.4 445.1,579.7 		"/>
		<polygon class="st4" points="470.9,565.1 470.9,594.3 470.7,594.5 445.3,579.8 445.3,579.6 470.7,565 		"/>
		<polygon class="st4" points="470.7,565 445.3,579.6 445.3,550.3 		"/>
		<polygon class="st4" points="445.3,579.8 470.7,594.5 445.3,609.1 		"/>
		<polygon class="st3" points="445.1,609.2 419.7,623.9 419.7,594.5 		"/>
		<path class="st3" d="M419.7,594.5v29.4l-0.1,0.1l-17.9-10.3c0,0,0,0-0.1,0c-0.8-0.6-1.6-1.1-2.5-1.5H399l-5-2.9L419.7,594.5
			L419.7,594.5z"/>
		<polygon class="st4" points="599,344.3 599.9,344.8 599,345.3 		"/>
		<polygon class="st4" points="599,403.2 599,431.9 598.3,432.3 573.4,417.9 573.4,417.2 598.3,402.8 		"/>
		<polygon class="st4" points="599,402.4 599,403.2 598.3,402.8 		"/>
		<polygon class="st4" points="599,373.8 599,402.4 598.3,402.8 573.4,388.4 573.4,387.7 598.3,373.4 		"/>
		<polygon class="st4" points="599,373 599,373.8 598.3,373.4 		"/>
		<path class="st4" d="M599,344.3v1.1l-1.3,0.8c-2.1-4.2-6.4-7.1-11.5-7.1c-7.1,0-12.8,5.7-12.8,12.8l0,0v-22.3L599,344.3z"/>
		<polygon class="st4" points="598.3,402.8 573.4,417.2 573.4,388.4 		"/>
		<polygon class="st4" points="598.3,432.3 573.4,446.7 573.4,417.9 		"/>
		<path class="st4" d="M597.7,346.1l-22.1,12.8c-1.4-2-2.2-4.5-2.2-7.1c0-7.1,5.7-12.8,12.8-12.8C591.2,339,595.6,341.9,597.7,346.1
			z"/>
		<path class="st4" d="M575.6,358.9l-1.2,0.7l-1-0.6v-7.2l0,0C573.4,354.4,574.2,356.8,575.6,358.9z"/>
		<polygon class="st4" points="573.4,417.9 573.4,446.7 572.8,447.1 547.8,432.6 547.8,432 572.8,417.6 		"/>
		<polygon class="st4" points="573.4,417.2 573.4,417.9 572.8,417.6 		"/>
		<polygon class="st4" points="573.4,388.4 573.4,417.2 572.8,417.6 547.8,403.1 547.8,402.5 572.8,388.1 		"/>
		<polygon class="st4" points="573.4,387.7 573.4,388.4 572.8,388.1 		"/>
		<polygon class="st4" points="573.4,359 573.4,360.1 548.8,374.3 547.8,373.7 547.8,344.2 		"/>
		<polygon class="st4" points="573.4,351.8 573.4,359 547.8,344.2 547.8,343.6 572.8,329.1 573.4,329.5 		"/>
		<polygon class="st4" points="547.8,432.6 572.8,447.1 547.8,461.5 		"/>
		<polygon class="st4" points="547.8,314.7 572.8,329.1 547.8,343.6 		"/>
		<polygon class="st4" points="547.8,403.1 572.8,417.6 547.8,432 		"/>
		<polygon class="st4" points="547.8,432.6 547.8,461.5 547.3,461.8 522.2,447.3 522.2,446.8 547.3,432.3 		"/>
		<polygon class="st4" points="547.8,403.1 547.8,432 547.3,432.3 522.2,417.8 522.2,417.3 547.3,402.8 		"/>
		<polygon class="st4" points="547.8,402.5 547.8,403.1 547.3,402.8 		"/>
		<polygon class="st4" points="547.8,344.2 547.8,373.7 522.2,358.9 522.2,358.4 547.3,343.9 		"/>
		<polygon class="st4" points="547.8,314.7 547.8,343.6 547.3,343.9 522.2,329.4 522.2,328.9 547.3,314.4 		"/>
		<polygon class="st4" points="522.2,447.3 547.3,461.8 522.2,476.3 		"/>
		<polygon class="st4" points="522.2,417.8 547.3,432.3 522.2,446.8 		"/>
		<polygon class="st4" points="522.2,329.4 547.3,343.9 522.2,358.4 		"/>
		<polygon class="st4" points="522.2,299.9 547.3,314.4 522.2,328.9 		"/>
		<polygon class="st4" points="522.2,447.3 522.2,476.3 521.7,476.5 496.5,462 496.5,461.6 521.7,447.1 		"/>
		<polygon class="st4" points="522.2,417.8 522.2,446.8 521.7,447.1 496.5,432.5 496.5,432.1 521.7,417.6 		"/>
		<polygon class="st4" points="522.2,388.4 522.2,389.7 497.8,403.8 496.5,403 496.5,373.6 		"/>
		<polygon class="st4" points="522.2,329.4 522.2,358.4 521.7,358.6 496.5,344.1 496.5,343.7 521.7,329.1 		"/>
		<polygon class="st4" points="522.2,299.9 522.2,328.9 521.7,329.1 496.5,314.6 496.5,314.2 521.7,299.7 		"/>
		<polygon class="st4" points="496.5,462 521.7,476.5 496.5,491.1 		"/>
		<polygon class="st4" points="496.5,432.5 521.7,447.1 496.5,461.6 		"/>
		<polygon class="st4" points="496.5,314.6 521.7,329.1 496.5,343.7 		"/>
		<polygon class="st4" points="496.5,285.1 521.7,299.7 496.5,314.2 		"/>
		<polygon class="st4" points="496.5,462 496.5,491.1 496.2,491.3 470.9,476.7 470.9,476.4 496.2,461.8 		"/>
		<polygon class="st4" points="496.5,432.5 496.5,461.6 496.2,461.8 470.9,447.2 470.9,446.9 496.2,432.3 		"/>
		<polygon class="st4" points="496.5,403 496.5,404.5 472.3,418.5 470.9,417.7 470.9,388.2 		"/>
		<polygon class="st4" points="496.5,373.6 496.5,403 470.9,388.2 470.9,388 496.2,373.4 		"/>
		<polygon class="st4" points="496.5,314.6 496.5,343.7 496.2,343.9 470.9,329.3 470.9,329 496.2,314.4 		"/>
		<polygon class="st4" points="496.5,285.1 496.5,314.2 496.2,314.4 470.9,299.8 470.9,299.5 496.2,284.9 		"/>
		<polygon class="st4" points="496.2,373.4 470.9,388 470.9,358.8 		"/>
		<polygon class="st4" points="496.2,284.9 470.9,299.5 470.9,270.3 		"/>
		<polygon class="st4" points="496.2,314.4 470.9,329 470.9,299.8 		"/>
		<polygon class="st4" points="496.2,461.8 470.9,476.4 470.9,447.2 		"/>
		<polygon class="st4" points="496.2,491.3 470.9,505.9 470.9,476.7 		"/>
		<polygon class="st4" points="470.9,476.7 470.9,505.9 469.1,507 445.3,493.2 445.3,491.2 470.7,476.5 		"/>
		<polygon class="st4" points="470.9,447.2 470.9,476.4 470.7,476.5 445.3,461.9 445.3,461.7 470.7,447.1 		"/>
		<polygon class="st4" points="470.9,388.2 470.9,417.7 445.3,402.9 445.3,402.7 470.7,388.1 		"/>
		<polygon class="st4" points="470.9,358.8 470.9,388 470.7,388.1 445.3,373.5 445.3,373.3 470.7,358.6 		"/>
		<polygon class="st4" points="470.9,299.8 470.9,329 470.7,329.1 445.3,314.5 445.3,314.3 470.7,299.7 		"/>
		<polygon class="st4" points="470.9,270.3 470.9,299.5 470.7,299.7 445.3,285 445.3,284.8 470.7,270.2 		"/>
		<polygon class="st4" points="470.7,388.1 445.3,402.7 445.3,373.5 		"/>
		<polygon class="st4" points="470.7,358.6 445.3,373.3 445.3,344 		"/>
		<polygon class="st4" points="445.3,255.5 470.7,270.2 445.3,284.8 		"/>
		<polygon class="st4" points="445.3,285 470.7,299.7 445.3,314.3 		"/>
		<polygon class="st4" points="445.3,461.9 470.7,476.5 445.3,491.2 		"/>
		<polygon class="st4" points="445.3,493.2 469.1,507 445.3,520.7 		"/>
		<polygon class="st3" points="445.3,493.2 445.3,520.7 445.1,520.8 419.7,506.1 419.7,506 443.5,492.2 		"/>
		<polygon class="st4" points="445.3,491.2 445.3,493.2 443.5,492.2 		"/>
		<polygon class="st3" points="445.3,461.9 445.3,491.2 443.5,492.2 419.7,478.4 419.7,476.5 445.1,461.8 		"/>
		<polygon class="st3" points="445.3,432.4 445.3,434.1 421.2,448 419.7,447.1 419.7,417.6 		"/>
		<polygon class="st4" points="445.3,373.5 445.3,402.7 445.1,402.8 419.7,388.2 419.7,388.1 445.1,373.4 		"/>
		<polygon class="st4" points="445.3,344 445.3,373.3 445.1,373.4 419.7,358.7 419.7,358.6 445.1,343.9 		"/>
		<polygon class="st4" points="445.3,285 445.3,314.3 445.1,314.4 419.7,299.7 419.7,299.6 445.1,284.9 		"/>
		<polygon class="st4" points="445.3,255.5 445.3,284.8 445.1,284.9 419.7,270.2 419.7,270.1 445.1,255.4 		"/>
		<polygon class="st4" points="445.1,255.4 419.7,270.1 419.7,240.8 		"/>
		<polygon class="st4" points="445.1,373.4 419.7,388.1 419.7,358.7 		"/>
		<polygon class="st3" points="445.1,520.8 419.7,535.5 419.7,506.1 		"/>
		<polygon class="st4" points="445.1,343.9 419.7,358.6 419.7,329.2 		"/>
		<polygon class="st4" points="445.1,284.9 419.7,299.6 419.7,270.2 		"/>
		<polygon class="st3" points="419.7,478.4 443.5,492.2 419.7,506 		"/>
		<polygon class="st3" points="419.7,506.1 419.7,535.5 419.6,535.5 394.1,520.8 419.6,506 		"/>
		<polygon class="st3" points="419.7,478.4 419.7,506 419.6,506 394.1,491.3 418,477.5 		"/>
		<polygon class="st3" points="419.7,447.1 419.7,448.9 394.1,463.7 394.1,463.7 394.1,432.3 394.1,432.3 		"/>
		<polygon class="st3" points="419.7,417.6 419.7,447.1 394.1,432.3 419.6,417.6 		"/>
		<polygon class="st4" points="419.7,358.7 419.7,388.1 419.6,388.1 394.1,373.4 419.6,358.6 		"/>
		<polygon class="st4" points="419.7,329.2 419.7,358.6 419.6,358.6 394.1,343.9 419.6,329.1 		"/>
		<polygon class="st4" points="419.7,270.2 419.7,299.6 419.6,299.7 394.1,284.9 419.6,270.2 		"/>
		<path class="st4" d="M419.7,240.8v29.4h-0.1l-25.5-14.7l5.2-3c0.8-0.4,1.6-0.8,2.3-1.3L419.7,240.8L419.7,240.8z"/>
		<path class="st4" d="M419.6,240.7l-18,10.4c3.2-2.3,5.3-6.1,5.3-10.4c0-4.9-2.7-9.1-6.7-11.2l0,0L419.6,240.7z"/>
		<polygon class="st4" points="419.6,270.2 394.1,284.9 394.1,284.9 394.1,255.4 394.1,255.4 		"/>
		<polygon class="st4" points="419.6,329.1 394.1,343.9 394.1,343.9 394.1,314.4 394.1,314.4 		"/>
		<polygon class="st4" points="419.6,358.6 394.1,373.4 394.1,373.4 394.1,343.9 394.1,343.9 		"/>
		<polygon class="st3" points="419.6,417.6 394.1,432.3 394.1,432.3 394.1,402.8 394.1,402.8 		"/>
		<polygon class="st3" points="419.6,506 394.1,520.8 394.1,520.8 394.1,491.3 394.1,491.3 		"/>
		<polygon class="st3" points="419.6,535.5 394.1,550.2 394.1,550.2 394.1,520.8 394.1,520.8 		"/>
		<path class="st4" d="M400.2,229.5c4,2.2,6.7,6.4,6.7,11.2c0,4.3-2.1,8.1-5.3,10.4l-2.3,1.3c-1.6,0.7-3.4,1.1-5.2,1.1l0,0v-25.6
			l0,0C396.3,227.9,398.4,228.5,400.2,229.5z"/>
		<polygon class="st4" points="394.1,520.8 394.1,550.2 368.5,535.5 		"/>
		<polygon class="st4" points="394.1,491.3 394.1,520.8 368.5,506 		"/>
		<polygon class="st4" points="394.1,491.3 394.1,491.3 368.5,506 368.4,506 368.4,478.4 370.1,477.5 		"/>
		<polygon class="st3" points="394.1,432.3 394.1,463.7 368.4,448.9 368.4,447.1 		"/>
		<polygon class="st3" points="394.1,402.8 394.1,432.3 368.5,417.6 		"/>
		<polygon class="st4" points="394.1,343.9 394.1,373.4 368.5,358.6 		"/>
		<polygon class="st4" points="394.1,314.4 394.1,343.9 368.5,329.1 		"/>
		<polygon class="st4" points="394.1,314.4 394.1,314.4 368.5,329.1 368.4,329.1 368.4,299.7 368.5,299.7 		"/>
		<polygon class="st4" points="394.1,255.4 394.1,284.9 368.5,270.2 		"/>
		<path class="st4" d="M394.1,227.9v25.6c-1.9,0-3.7-0.4-5.4-1.2l-1.9-1.1c-3.3-2.3-5.5-6.2-5.5-10.5c0-4.6,2.5-8.7,6.2-10.9
			C389.4,228.6,391.6,227.9,394.1,227.9z"/>
		<path class="st4" d="M388.7,252.3l5.4,3.1l-25.5,14.7h-0.1v-29.4l0.1-0.1l18.2,10.5C387.4,251.7,388,252,388.7,252.3z"/>
		<polygon class="st4" points="368.5,270.2 394.1,284.9 368.5,299.7 368.4,299.6 368.4,270.2 		"/>
		<polygon class="st4" points="368.5,329.1 394.1,343.9 368.5,358.6 368.4,358.6 368.4,329.2 		"/>
		<polygon class="st3" points="368.5,388.1 394.1,402.8 368.5,417.6 368.4,417.5 368.4,388.2 		"/>
		<polygon class="st3" points="368.5,417.6 394.1,432.3 368.4,447.1 368.4,417.6 		"/>
		<polygon class="st4" points="368.5,506 394.1,520.8 368.5,535.5 368.4,535.5 368.4,506.1 		"/>
		<path class="st4" d="M387.5,229.8L387.5,229.8c-3.7,2.3-6.2,6.3-6.2,11c0,4.3,2.2,8.2,5.5,10.5l-18.2-10.5L387.5,229.8z"/>
		<polygon class="st4" points="368.4,506.1 368.4,535.5 343,520.8 		"/>
		<polygon class="st4" points="368.4,506 368.4,506.1 343,520.8 342.8,520.7 342.8,493.2 344.6,492.2 		"/>
		<polygon class="st4" points="368.4,478.4 368.4,506 344.6,492.2 		"/>
		<polygon class="st4" points="368.4,476.5 368.4,478.4 344.6,492.2 342.8,491.2 342.8,461.9 343,461.8 		"/>
		<polygon class="st3" points="368.4,417.6 368.4,447.1 366.9,448 342.8,434.1 342.8,432.4 		"/>
		<polygon class="st3" points="368.4,417.5 368.4,417.6 342.8,432.4 342.8,402.9 343,402.8 		"/>
		<polygon class="st3" points="368.4,388.2 368.4,417.5 343,402.8 		"/>
		<polygon class="st3" points="368.4,388.1 368.4,388.2 343,402.8 342.8,402.7 342.8,373.5 343,373.4 		"/>
		<polygon class="st4" points="368.4,329.2 368.4,358.6 343,343.9 		"/>
		<polygon class="st4" points="368.4,329.1 368.4,329.2 343,343.9 342.8,343.8 342.8,314.5 343,314.4 		"/>
		<polygon class="st4" points="368.4,299.7 368.4,329.1 343,314.4 		"/>
		<polygon class="st4" points="368.4,299.6 368.4,299.7 343,314.4 342.8,314.3 342.8,285 343,284.9 		"/>
		<polygon class="st4" points="368.4,270.2 368.4,299.6 343,284.9 		"/>
		<polygon class="st4" points="368.4,270.1 368.4,270.2 343,284.9 342.8,284.8 342.8,255.5 343,255.4 		"/>
		<polygon class="st4" points="368.4,240.8 368.4,270.1 343,255.4 		"/>
		<polygon class="st4" points="342.8,493.2 342.8,520.7 319.1,507 		"/>
		<polygon class="st4" points="342.8,491.2 342.8,493.2 319.1,507 317.2,505.9 317.2,476.7 317.5,476.5 		"/>
		<polygon class="st4" points="342.8,461.9 342.8,491.2 317.5,476.5 		"/>
		<polygon class="st4" points="342.8,461.7 342.8,461.9 317.5,476.5 317.2,476.4 317.2,447.2 317.5,447.1 		"/>
		<polygon class="st3" points="342.8,402.9 342.8,432.4 341.4,433.2 317.2,419.3 317.2,417.7 		"/>
		<polygon class="st3" points="342.8,402.7 342.8,402.9 317.2,417.7 317.2,388.2 317.5,388.1 		"/>
		<polygon class="st3" points="342.8,373.5 342.8,402.7 317.5,388.1 		"/>
		<polygon class="st3" points="342.8,373.3 342.8,373.5 317.5,388.1 317.2,388 317.2,358.8 317.5,358.6 		"/>
		<polygon class="st4" points="342.8,314.5 342.8,343.8 317.5,329.1 		"/>
		<polygon class="st4" points="342.8,314.3 342.8,314.5 317.5,329.1 317.2,329 317.2,299.8 317.5,299.7 		"/>
		<polygon class="st4" points="342.8,285 342.8,314.3 317.5,299.7 		"/>
		<polygon class="st4" points="342.8,284.8 342.8,285 317.5,299.7 317.2,299.5 317.2,270.3 317.5,270.2 		"/>
		<polygon class="st4" points="342.8,255.5 342.8,284.8 317.5,270.2 		"/>
		<polygon class="st4" points="317.2,476.7 317.2,505.9 291.9,491.3 		"/>
		<polygon class="st4" points="317.2,476.4 317.2,476.7 291.9,491.3 291.6,491.1 291.6,462 291.9,461.8 		"/>
		<polygon class="st4" points="317.2,447.2 317.2,476.4 291.9,461.8 		"/>
		<polygon class="st4" points="317.2,446.9 317.2,447.2 291.9,461.8 291.6,461.6 291.6,432.5 291.9,432.3 		"/>
		<polygon class="st3" points="317.2,388.2 317.2,417.7 315.9,418.5 291.6,404.5 291.6,403 		"/>
		<polygon class="st3" points="317.2,388 317.2,388.2 291.6,403 291.6,373.6 291.9,373.4 		"/>
		<polygon class="st3" points="317.2,358.8 317.2,388 291.9,373.4 		"/>
		<polygon class="st3" points="317.2,358.5 317.2,358.8 291.9,373.4 291.6,373.2 291.6,344.1 291.9,343.9 		"/>
		<polygon class="st4" points="317.2,329 317.2,329.3 291.9,343.9 291.6,343.7 291.6,314.6 291.9,314.4 		"/>
		<polygon class="st4" points="317.2,299.8 317.2,329 291.9,314.4 		"/>
		<polygon class="st4" points="317.2,299.5 317.2,299.8 291.9,314.4 291.6,314.2 291.6,285.1 291.9,284.9 		"/>
		<polygon class="st4" points="317.2,270.3 317.2,299.5 291.9,284.9 		"/>
		<polygon class="st4" points="291.6,462 291.6,491.1 266.4,476.5 		"/>
		<polygon class="st4" points="291.6,461.6 291.6,462 266.4,476.5 266,476.3 266,447.3 266.4,447.1 		"/>
		<polygon class="st4" points="291.6,432.5 291.6,461.6 266.4,447.1 		"/>
		<polygon class="st4" points="291.6,432.1 291.6,432.5 266.4,447.1 266,446.8 266,417.8 266.4,417.6 		"/>
		<polygon class="st3" points="291.6,373.6 291.6,403 290.3,403.8 266,389.7 266,388.4 		"/>
		<polygon class="st3" points="291.6,373.2 291.6,373.6 266,388.4 266,358.9 266.4,358.6 		"/>
		<polygon class="st3" points="291.6,344.1 291.6,373.2 266.4,358.6 		"/>
		<polygon class="st3" points="291.6,343.7 291.6,344.1 266.4,358.6 266,358.4 266,329.4 266.4,329.1 		"/>
		<polygon class="st4" points="291.6,314.7 291.6,343.7 266.5,329.2 		"/>
		<polygon class="st4" points="291.6,314.2 291.6,314.6 266.4,329.1 266,328.9 266,299.9 266.4,299.7 		"/>
		<polygon class="st4" points="291.6,285.1 291.6,314.2 266.4,299.7 		"/>
		<polygon class="st4" points="266,447.3 266,476.3 240.9,461.8 		"/>
		<polygon class="st4" points="266,446.8 266,447.3 240.9,461.8 240.4,461.5 240.4,432.6 240.9,432.3 		"/>
		<polygon class="st4" points="266,417.8 266,446.8 240.9,432.3 		"/>
		<polygon class="st4" points="266,417.3 266,417.8 240.9,432.3 240.4,432 240.4,403.1 240.9,402.8 		"/>
		<polygon class="st3" points="266,358.9 266,388.4 264.8,389 240.4,374.9 240.4,373.7 		"/>
		<polygon class="st3" points="266,358.4 266,358.9 240.4,373.7 240.4,344.2 240.9,343.9 		"/>
		<polygon class="st3" points="266,329.4 266,358.4 240.9,343.9 		"/>
		<polygon class="st3" points="266,328.9 266,329.4 240.9,343.9 240.4,343.6 240.4,314.7 240.9,314.4 		"/>
		<polygon class="st4" points="266,299.9 266,328.9 240.9,314.4 		"/>
		<polygon class="st4" points="240.4,432.6 240.4,461.5 215.3,447.1 		"/>
		<polygon class="st4" points="240.4,432 240.4,432.6 215.3,447.1 214.7,446.7 214.7,417.9 215.4,417.6 		"/>
		<polygon class="st4" points="240.4,403.1 240.4,432 215.4,417.6 		"/>
		<polygon class="st4" points="240.4,402.5 240.4,403.1 215.4,417.6 214.7,417.2 214.7,388.4 215.4,388.1 		"/>
		<polygon class="st4" points="240.2,374.7 240.2,402.1 215.4,387.8 239.1,374.1 		"/>
		<polygon class="st3" points="240.4,344.2 240.4,373.7 239.3,374.3 214.7,360.1 214.7,359 		"/>
		<polygon class="st3" points="240.4,343.6 240.4,344.2 214.7,359 214.7,351.8 214.7,329.5 215.3,329.1 		"/>
		<polygon class="st3" points="240.4,314.7 240.4,343.6 215.3,329.1 		"/>
		<polygon class="st4" points="214.7,360 239.1,374.1 215.4,387.8 214.7,387.5 		"/>
		<polygon class="st4" points="214.7,417.9 214.7,446.7 189.8,432.3 		"/>
		<polygon class="st4" points="214.7,417.2 214.7,417.9 189.8,432.3 189.1,431.9 189.1,403.2 189.8,402.8 		"/>
		<polygon class="st4" points="214.7,388.4 214.7,417.2 189.8,402.8 		"/>
		<polygon class="st4" points="214.7,387.5 214.7,388.2 190,402.4 189.3,402.1 189.3,373.6 190,373.2 		"/>
		<path class="st4" d="M214.7,360v27.4L190,373.2l16.8-9.7c1.1-0.4,2.1-1,3-1.7l4-2.3L214.7,360z"/>
		<path class="st3" d="M214.7,329.5v22.3l0,0c0-7.1-5.7-12.8-12.8-12.8c-2.4,0-4.7,0.7-6.6,1.9v-0.1L214.7,329.5z"/>
		<path class="st3" d="M214.7,351.8c0,2.6-0.8,5.1-2.2,7.1l-22.1-12.7c1.1-2.2,2.8-4,4.8-5.3c1.9-1.2,4.2-1.9,6.6-1.9
			C209,339,214.7,344.7,214.7,351.8z"/>
		<path class="st4" d="M190.6,346.1l21.9,12.7c-0.8,1.1-1.7,2.2-2.8,3l-3,1.7c-1.5,0.6-3.1,0.9-4.8,0.9c-7,0-12.7-5.7-12.7-12.7
			C189.3,349.7,189.8,347.8,190.6,346.1z"/>
		<path class="st4" d="M206.8,363.5l-16.8,9.7l-0.7-0.4v-21.1c0,7,5.7,12.7,12.7,12.7C203.7,364.4,205.3,364.1,206.8,363.5z"/>
	</g>
	<g>
		<g>
			<line class="st5" x1="189" y1="-11.3" x2="189" y2="876.8"/>
			<line class="st5" x1="598.9" y1="-11.3" x2="598.9" y2="876.8"/>
			<line class="st5" x1="522" y1="-11.3" x2="522" y2="876.8"/>
			<line class="st5" x1="496.4" y1="-11.3" x2="496.4" y2="876.8"/>
			<line class="st5" x1="470.8" y1="-11.3" x2="470.8" y2="876.8"/>
			<line class="st5" x1="573.3" y1="-11.3" x2="573.3" y2="876.8"/>
			<line class="st5" x1="547.7" y1="-11.3" x2="547.7" y2="876.8"/>
			<line class="st5" x1="445.2" y1="-11.3" x2="445.2" y2="876.8"/>
			<line class="st5" x1="419.6" y1="-11.3" x2="419.6" y2="876.8"/>
			<line class="st5" x1="368.3" y1="-11.3" x2="368.3" y2="876.8"/>
			<line class="st5" x1="393.9" y1="-11.3" x2="393.9" y2="876.8"/>
			<line class="st5" x1="342.7" y1="-11.3" x2="342.7" y2="876.8"/>
			<line class="st5" x1="291.5" y1="-11.3" x2="291.5" y2="876.8"/>
			<line class="st5" x1="265.9" y1="-11.3" x2="265.9" y2="876.8"/>
			<line class="st5" x1="240.2" y1="-11.3" x2="240.2" y2="876.8"/>
			<line class="st5" x1="214.6" y1="-11.3" x2="214.6" y2="876.8"/>
			<line class="st5" x1="317.1" y1="-11.3" x2="317.1" y2="876.8"/>
		</g>
		<line class="st5" x1="-6.8" y1="-6" x2="797.9" y2="458"/>
		<line class="st5" x1="-6.8" y1="23.5" x2="797.9" y2="487.5"/>
		<line class="st5" x1="-6.8" y1="53" x2="797.9" y2="517"/>
		<line class="st5" x1="-6.8" y1="82.4" x2="797.9" y2="546.5"/>
		<line class="st5" x1="-6.8" y1="111.9" x2="797.9" y2="576"/>
		<line class="st5" x1="-6.8" y1="141.4" x2="797.9" y2="605.4"/>
		<line class="st5" x1="-6.8" y1="170.9" x2="797.9" y2="634.9"/>
		<line class="st5" x1="-6.8" y1="200.4" x2="797.9" y2="664.4"/>
		<line class="st5" x1="-10" y1="229.8" x2="794.7" y2="693.9"/>
		<line class="st5" x1="-6.8" y1="259.3" x2="797.9" y2="723.4"/>
		<line class="st5" x1="-6.8" y1="288.8" x2="797.9" y2="752.8"/>
		<line class="st5" x1="-6.8" y1="318.3" x2="797.9" y2="782.3"/>
		<line class="st5" x1="-6.8" y1="347.8" x2="797.9" y2="811.8"/>
		<line class="st5" x1="-6.8" y1="377.2" x2="797.9" y2="841.3"/>
		<line class="st5" x1="-6.8" y1="406.7" x2="797.9" y2="870.8"/>
		<line class="st5" x1="794.7" y1="-6" x2="-10" y2="459"/>
		<line class="st5" x1="794.7" y1="23.5" x2="-10" y2="488.5"/>
		<line class="st5" x1="794.7" y1="53" x2="-10" y2="518"/>
		<line class="st5" x1="794.7" y1="82.4" x2="-10" y2="547.5"/>
		<line class="st5" x1="794.7" y1="111.9" x2="-10" y2="577"/>
		<line class="st5" x1="794.7" y1="141.4" x2="-10" y2="606.4"/>
		<line class="st5" x1="794.7" y1="170.9" x2="-10" y2="635.9"/>
		<line class="st5" x1="794.7" y1="200.4" x2="-10" y2="665.4"/>
		<line class="st5" x1="797.9" y1="229.8" x2="-6.8" y2="694.9"/>
		<line class="st5" x1="794.7" y1="259.3" x2="-10" y2="724.4"/>
		<line class="st5" x1="794.7" y1="288.8" x2="-10" y2="753.8"/>
		<line class="st5" x1="794.7" y1="318.3" x2="-10" y2="783.3"/>
		<line class="st5" x1="794.7" y1="347.8" x2="-10" y2="812.8"/>
		<line class="st5" x1="794.7" y1="377.2" x2="-10" y2="842.3"/>
		<line class="st5" x1="794.7" y1="406.7" x2="-10" y2="871.8"/>
		<circle class="st5" cx="394" cy="240.4" r="12.8"/>
		<circle class="st5" cx="586.1" cy="512.6" r="12.8"/>
		<circle class="st5" cx="394" cy="623.5" r="12.8"/>
		<circle class="st5" cx="201.8" cy="512.6" r="12.8"/>
		<circle class="st5" cx="201.8" cy="351.4" r="12.8"/>
		<circle class="st5" cx="586.1" cy="351.4" r="12.8"/>
	</g>
</g>
</svg>
